<svg data-v-423bf9ae="" xmlns="http://www.w3.org/2000/svg" viewBox="0 0 423.64291215916444 60" class="font"><!----><!----><!----><g data-v-423bf9ae="" id="4f552f5b-49d4-4ddf-a574-17770e12304c" fill="white" transform="matrix(4.285714577655423,0,0,4.285714577655423,-2.7000042214704365,-12.000000374657809)"><path d="M9.79 10.39L8.71 10.39C8.38 11.00 7.92 11.50 7.33 11.87C6.74 12.25 6.09 12.43 5.38 12.43C4.33 12.43 3.44 12.04 2.69 11.27C1.97 10.52 1.61 9.61 1.61 8.55C1.61 7.49 1.97 6.58 2.69 5.82C3.04 5.47 3.43 5.19 3.89 4.98C4.35 4.77 4.80 4.66 5.24 4.66C5.67 4.66 6.06 4.71 6.39 4.81C7.41 5.11 8.18 5.73 8.69 6.68L9.77 6.68C9.41 5.77 8.83 5.04 8.04 4.49C7.24 3.93 6.35 3.65 5.38 3.65C4.06 3.65 2.93 4.14 2.00 5.11C1.57 5.56 1.24 6.08 0.99 6.67C0.75 7.26 0.63 7.89 0.63 8.55C0.63 9.89 1.09 11.03 2.00 11.98C2.93 12.95 4.06 13.44 5.38 13.44C6.35 13.44 7.24 13.16 8.05 12.59C8.85 12.03 9.43 11.30 9.79 10.39ZM14.42 8.41L14.42 7.14C14.22 7.06 14.02 7.01 13.80 7.01C13.11 7.01 12.61 7.40 12.28 8.16L12.24 8.41L12.24 7.14L11.26 7.14L11.26 13.30L12.24 13.30L12.24 10.22C12.24 9.71 12.35 9.26 12.59 8.86C12.71 8.64 12.86 8.47 13.04 8.32C13.22 8.18 13.44 8.11 13.70 8.11C13.95 8.11 14.19 8.21 14.42 8.41ZM16.39 16.80L20.65 7.14L19.56 7.14L17.79 11.27L15.82 7.14L14.70 7.14L17.28 12.29L15.20 16.80ZM22.54 16.80L22.54 12.25C22.59 12.32 22.65 12.39 22.71 12.46C23.30 13.11 24.01 13.44 24.86 13.44C25.71 13.44 26.43 13.11 27.01 12.46C27.58 11.83 27.86 11.08 27.86 10.22C27.86 9.36 27.58 8.61 27.01 7.98C26.43 7.33 25.71 7.00 24.86 7.00C24.01 7.00 23.30 7.33 22.71 7.98C22.65 8.05 22.59 8.12 22.54 8.19L22.54 7.14L21.56 7.14L21.56 16.80ZM26.88 10.22C26.88 10.82 26.67 11.34 26.26 11.79C25.84 12.24 25.32 12.46 24.71 12.46C24.10 12.46 23.58 12.24 23.16 11.79C22.75 11.34 22.54 10.82 22.54 10.22C22.54 9.62 22.75 9.10 23.16 8.65C23.58 8.20 24.10 7.98 24.71 7.98C25.32 7.98 25.84 8.20 26.26 8.65C26.67 9.10 26.88 9.62 26.88 10.22ZM28.77 8.05L30.31 8.05L30.31 13.30L31.29 13.30L31.29 8.05L32.82 8.05L32.82 7.14L31.29 7.14L31.29 4.75L30.31 4.75L30.31 7.14L28.77 7.14ZM39.19 10.19C39.19 10.80 38.97 11.32 38.53 11.76C38.09 12.20 37.56 12.42 36.95 12.42C36.33 12.42 35.80 12.20 35.36 11.76C34.93 11.32 34.71 10.80 34.71 10.19C34.71 9.58 34.93 9.05 35.36 8.61C35.80 8.17 36.33 7.95 36.95 7.95C37.56 7.95 38.09 8.17 38.53 8.61C38.97 9.05 39.19 9.58 39.19 10.19ZM40.17 10.19C40.17 9.31 39.85 8.55 39.22 7.92C38.59 7.29 37.83 6.97 36.95 6.97C36.06 6.97 35.30 7.29 34.67 7.92C34.04 8.55 33.73 9.31 33.73 10.19C33.73 11.08 34.04 11.84 34.67 12.46C35.31 13.09 36.06 13.40 36.95 13.40C37.83 13.40 38.59 13.09 39.22 12.46C39.85 11.84 40.17 11.08 40.17 10.19ZM47.50 13.30L47.50 12.39L42.83 12.39L42.83 9.00L47.36 9.00L47.36 8.08L42.83 8.08L42.83 4.69L47.50 4.69L47.50 3.78L41.85 3.78L41.85 13.30ZM53.23 13.30L54.47 13.30L52.32 10.22L54.47 7.14L53.23 7.14L51.69 9.51L50.15 7.14L48.90 7.14L51.06 10.21L48.90 13.30L50.15 13.30L51.69 10.91ZM61.63 9.35C61.43 8.66 61.06 8.10 60.52 7.67C59.95 7.23 59.31 7.01 58.60 7.01C57.72 7.01 56.98 7.33 56.36 7.97C55.76 8.59 55.45 9.34 55.45 10.22C55.45 11.09 55.76 11.84 56.36 12.48C56.64 12.78 56.98 13.01 57.36 13.18C57.74 13.35 58.13 13.44 58.52 13.44C58.91 13.44 59.26 13.39 59.57 13.28C60.56 12.94 61.22 12.27 61.57 11.28L60.47 11.28C60.28 11.63 60.02 11.90 59.69 12.11C59.36 12.32 59.00 12.42 58.60 12.42C58.01 12.42 57.50 12.20 57.09 11.77C56.67 11.33 56.46 10.82 56.46 10.22C56.46 9.63 56.67 9.12 57.09 8.69C57.28 8.49 57.50 8.33 57.76 8.21C58.03 8.09 58.34 8.04 58.70 8.04C59.07 8.04 59.43 8.16 59.78 8.40C60.13 8.64 60.40 8.96 60.56 9.35ZM64.15 13.30L64.15 10.72C64.15 9.87 64.30 9.22 64.59 8.77C64.75 8.52 64.96 8.33 65.23 8.20C65.49 8.06 65.83 7.99 66.25 7.99C66.67 7.99 66.97 8.14 67.15 8.42C67.33 8.71 67.42 9.05 67.42 9.45L67.42 13.30L68.40 13.30L68.40 9.45C68.40 8.74 68.22 8.16 67.84 7.72C67.66 7.50 67.43 7.33 67.16 7.20C66.89 7.08 66.53 7.01 66.09 7.01C65.66 7.01 65.27 7.13 64.93 7.36C64.61 7.57 64.35 7.85 64.15 8.20L64.15 2.80L63.17 2.80L63.17 13.30ZM75.19 10.22C75.19 10.82 74.99 11.34 74.57 11.79C74.15 12.24 73.64 12.46 73.02 12.46C72.41 12.46 71.89 12.24 71.48 11.79C71.06 11.34 70.85 10.82 70.85 10.22C70.85 9.62 71.06 9.10 71.48 8.65C71.89 8.20 72.41 7.98 73.02 7.98C73.64 7.98 74.15 8.20 74.57 8.65C74.99 9.10 75.19 9.62 75.19 10.22ZM76.17 13.30L76.17 7.14L75.19 7.14L75.19 8.19C75.14 8.12 75.08 8.05 75.02 7.98C74.44 7.33 73.72 7.00 72.87 7.00C72.02 7.00 71.30 7.33 70.72 7.98C70.16 8.61 69.87 9.36 69.87 10.22C69.87 11.08 70.16 11.83 70.72 12.46C71.30 13.11 72.02 13.44 72.87 13.44C73.72 13.44 74.44 13.11 75.02 12.46C75.08 12.39 75.14 12.32 75.19 12.25L75.19 13.30ZM82.53 13.30L83.51 13.30L83.51 9.45C83.51 8.74 83.32 8.16 82.95 7.72C82.76 7.50 82.53 7.33 82.26 7.20C81.99 7.08 81.64 7.01 81.20 7.01C80.76 7.01 80.37 7.13 80.04 7.36C79.72 7.57 79.46 7.85 79.25 8.20L79.25 7.14L78.27 7.14L78.27 13.30L79.25 13.30L79.25 10.72C79.25 9.94 79.40 9.32 79.70 8.86C79.86 8.60 80.07 8.39 80.33 8.23C80.59 8.07 80.93 7.99 81.35 7.99C81.77 7.99 82.08 8.14 82.26 8.42C82.44 8.71 82.53 9.05 82.53 9.45ZM90.38 10.22C90.38 10.82 90.18 11.34 89.76 11.79C89.34 12.24 88.83 12.46 88.21 12.46C87.61 12.46 87.10 12.24 86.67 11.79C86.25 11.35 86.04 10.83 86.04 10.22C86.04 9.61 86.25 9.09 86.67 8.65C87.10 8.20 87.61 7.98 88.21 7.98C88.83 7.98 89.34 8.20 89.76 8.65C90.18 9.10 90.38 9.62 90.38 10.22ZM86.02 14.14L85.02 14.14C85.12 14.79 85.42 15.37 85.92 15.86C86.54 16.49 87.29 16.80 88.17 16.80C89.05 16.80 89.80 16.49 90.43 15.86C91.05 15.24 91.36 14.49 91.36 13.61L91.36 7.14L90.38 7.14L90.38 8.17C90.34 8.11 90.28 8.05 90.22 7.98C89.61 7.33 88.90 7.00 88.07 7.00C87.22 7.00 86.49 7.33 85.91 7.98C85.35 8.61 85.06 9.36 85.06 10.22C85.06 11.08 85.35 11.83 85.91 12.46C86.49 13.11 87.22 13.44 88.07 13.44C88.92 13.44 89.64 13.11 90.22 12.46C90.28 12.39 90.34 12.33 90.38 12.27L90.38 13.61C90.38 14.21 90.17 14.74 89.73 15.17C89.30 15.60 88.78 15.82 88.17 15.82C87.57 15.82 87.05 15.60 86.61 15.17C86.31 14.87 86.11 14.52 86.02 14.14ZM99.48 10.08C99.48 9.23 99.16 8.50 98.51 7.88C97.87 7.28 97.13 6.97 96.26 6.97C95.38 6.97 94.62 7.29 93.99 7.92C93.36 8.55 93.04 9.31 93.04 10.19C93.04 11.08 93.36 11.84 93.99 12.46C94.28 12.75 94.62 12.98 95.01 13.15C95.40 13.31 95.87 13.40 96.41 13.40C96.96 13.40 97.49 13.23 98.02 12.89C98.55 12.55 98.94 12.08 99.20 11.49L98.08 11.49C97.87 11.78 97.60 12.01 97.28 12.17C96.96 12.34 96.62 12.42 96.26 12.42C95.74 12.42 95.26 12.25 94.84 11.90C94.42 11.56 94.16 11.13 94.07 10.60L99.48 10.60ZM98.45 9.76L94.08 9.76C94.14 9.50 94.23 9.26 94.37 9.04C94.84 8.31 95.47 7.95 96.26 7.95C96.79 7.95 97.25 8.12 97.66 8.46C98.07 8.80 98.34 9.23 98.45 9.76Z"></path></g><!----><!----></svg>